<svg width="372" height="97" viewBox="0 0 372 97" fill="none" xmlns="http://www.w3.org/2000/svg">
<path d="M338.207 64.3428L352.797 29.0547H360.619L333.373 94.9727H325.507L334.735 72.6484L313.729 29.0547H321.684L338.207 64.3428ZM98.6611 5.76367C103.261 5.76367 107.626 6.55469 111.757 8.13672C115.917 9.71875 119.608 11.9893 122.831 14.9482L117.733 19.958C115.302 17.585 112.445 15.7686 109.164 14.5088C105.883 13.249 102.411 12.6191 98.749 12.6191C94.9404 12.6191 91.4395 13.293 88.2461 14.6406C85.0527 15.959 82.2842 17.8486 79.9404 20.3096C77.626 22.7412 75.8242 25.627 74.5352 28.9668C73.2754 32.3066 72.6455 35.9834 72.6455 39.9971C72.6455 43.9814 73.2754 47.6582 74.5352 51.0273C75.7949 54.3672 77.5674 57.2676 79.8525 59.7285C82.1377 62.1895 84.8477 64.0938 87.9824 65.4414C91.1172 66.7891 94.5596 67.4629 98.3096 67.4629C101.767 67.4629 104.945 66.8916 107.846 65.749C110.775 64.5771 113.339 62.9365 115.536 60.8271C117.763 58.6885 119.55 56.1543 120.897 53.2246C122.274 50.2656 123.124 47.0137 123.446 43.4688H99.2764V37.3604H130.302L130.521 40.2168C130.521 45.2266 129.73 49.8115 128.148 53.9717C126.596 58.1318 124.384 61.7354 121.513 64.7822C118.642 67.8291 115.243 70.1875 111.317 71.8574C107.392 73.498 103.07 74.3184 98.3535 74.3184C93.5195 74.3184 89.0518 73.4688 84.9502 71.7695C80.8779 70.041 77.3184 67.6387 74.2715 64.5625C71.2539 61.4863 68.9102 57.8828 67.2402 53.752C65.5703 49.5918 64.7354 45.0654 64.7354 40.1729C64.7354 35.251 65.585 30.6953 67.2842 26.5059C68.9834 22.3164 71.3564 18.6689 74.4033 15.5635C77.4502 12.458 81.0391 10.0557 85.1699 8.35645C89.3008 6.62793 93.7979 5.76367 98.6611 5.76367ZM157.987 28.1758C161.796 28.1758 165.077 28.9521 167.831 30.5049C170.614 32.0283 172.768 34.2109 174.291 37.0527C175.814 39.8652 176.576 43.2051 176.576 47.0723V73H170.38L169.896 67.1992C168.285 69.2793 166.234 70.9199 163.744 72.1211C161.254 73.293 158.471 73.8789 155.395 73.8789C152.23 73.8789 149.403 73.2637 146.913 72.0332C144.423 70.7734 142.46 69.0596 141.024 66.8916C139.618 64.7236 138.915 62.2627 138.915 59.5088C138.915 56.6084 139.677 54.0596 141.2 51.8623C142.753 49.6357 144.848 47.8926 147.484 46.6328C150.15 45.373 153.168 44.7432 156.537 44.7432C158.734 44.7432 160.976 45.0215 163.261 45.5781C165.546 46.1055 167.582 46.8379 169.369 47.7754V45.9297C169.369 43.5859 168.783 41.5938 167.611 39.9531C166.439 38.2832 164.872 37.0088 162.909 36.1299C160.946 35.2217 158.778 34.7676 156.405 34.7676C154.354 34.7676 152.26 35.1484 150.121 35.9102C147.982 36.6426 145.932 37.7852 143.969 39.3379L141.596 33.1416C144.145 31.501 146.825 30.2705 149.638 29.4502C152.45 28.6006 155.233 28.1758 157.987 28.1758ZM250.712 28.1758C255.106 28.1758 258.974 29.2305 262.313 31.3398C265.683 33.4492 268.305 36.3789 270.18 40.1289C272.055 43.8789 272.992 48.2148 272.992 53.1367V54.543H236.21C236.737 57.1211 237.792 59.3623 239.374 61.2666C240.956 63.1709 242.934 64.6504 245.307 65.7051C247.709 66.7598 250.375 67.2871 253.305 67.2871C258.344 67.2871 262.943 65.6318 267.104 62.3213L270.443 67.5947C264.994 71.7842 258.988 73.8789 252.426 73.8789C247.855 73.8789 243.754 72.8535 240.121 70.8027C236.488 68.752 233.617 65.9688 231.508 62.4531C229.428 58.9082 228.388 54.9092 228.388 50.4561C228.388 46.1787 229.354 42.3701 231.288 39.0303C233.222 35.6611 235.873 33.0098 239.242 31.0762C242.611 29.1426 246.435 28.1758 250.712 28.1758ZM15.2646 16C15.7827 16 16.266 16.2626 16.5459 16.6982L19.6533 21.5205C24.0067 18.0675 29.5099 16 35.501 16C49.5842 16.0001 61 27.3971 61 41.457C60.9999 55.5169 49.5842 66.914 35.501 66.9141C30.6245 66.9141 26.0679 65.5466 22.1943 63.1748V71.4795C22.1943 72.3193 21.5123 73 20.6709 73H11.5244C10.6831 73 10.002 72.3193 10.002 71.4795L10 17.5205C10 16.6806 10.6812 16.0002 11.5225 16H15.2646ZM197.011 73H189.364V7.08203H197.011V73ZM218.28 73H210.634V7.08203H218.28V73ZM305.775 28.1758C306.566 28.1758 307.372 28.2197 308.192 28.3076C309.013 28.3955 309.833 28.5273 310.653 28.7031L309.774 35.207C308.163 34.8262 306.566 34.6357 304.984 34.6357C302.113 34.6357 299.564 35.3389 297.338 36.7451C295.141 38.1514 293.427 40.085 292.196 42.5459C290.966 45.0068 290.351 47.834 290.351 51.0273V73H283.144V29.0547H289.472L289.779 37.7559C291.303 34.7383 293.441 32.3945 296.195 30.7246C298.979 29.0254 302.172 28.1758 305.775 28.1758ZM157.812 50.8076C154.56 50.8076 151.835 51.5986 149.638 53.1807C147.47 54.7627 146.386 56.7695 146.386 59.2012C146.386 60.7246 146.825 62.1016 147.704 63.332C148.612 64.5625 149.843 65.5293 151.396 66.2324C152.948 66.9355 154.706 67.2871 156.669 67.2871C158.925 67.2871 160.99 66.8184 162.865 65.8809C164.74 64.9434 166.264 63.5957 167.436 61.8379C168.607 60.0508 169.252 57.9414 169.369 55.5098V54.7627C167.758 53.5029 165.941 52.5361 163.92 51.8623C161.928 51.1592 159.892 50.8076 157.812 50.8076ZM35.502 28.1699C28.1532 28.1702 22.1954 34.1185 22.1953 41.4551C22.1953 48.7918 28.1532 54.74 35.502 54.7402C42.851 54.7402 48.8096 48.7919 48.8096 41.4551C48.8094 34.1183 42.8509 28.1699 35.502 28.1699ZM251.107 34.7676C248.383 34.7676 245.922 35.3389 243.725 36.4814C241.557 37.624 239.784 39.2207 238.407 41.2715C237.06 43.293 236.239 45.666 235.946 48.3906H266.181C265.858 45.666 265.009 43.293 263.632 41.2715C262.284 39.2207 260.526 37.624 258.358 36.4814C256.22 35.3389 253.803 34.7676 251.107 34.7676Z" fill="url(#paint0_radial_1_2)"/>
<defs>
<radialGradient id="paint0_radial_1_2" cx="0" cy="0" r="1" gradientUnits="userSpaceOnUse" gradientTransform="translate(106 18) rotate(11.3099) scale(163.169 41.5154)">
<stop stop-color="#88CFFF"/>
<stop offset="1" stop-color="#0096FA"/>
</radialGradient>
</defs>
</svg>
